<?xml version="1.0" encoding="UTF-8"?>
<svg id="Layer_2" data-name="Layer 2" xmlns="http://www.w3.org/2000/svg" viewBox="0 0 222.11 337.25">
  <defs>
    <style>
      .cls-1 {
        stroke: #231f20;
        stroke-miterlimit: 10;
      }

      .cls-1, .cls-2 {
        fill: #231f20;
      }
    </style>
  </defs>
  <g id="Layer_1-2" data-name="Layer 1">
    <g>
      <path class="cls-1" d="M118.6,26.19c1.08-3.95-4.18-5.89-4.33-12-.14-5.28,3.64-9.65,6.74-12.44,1.13,5.17,3.02,11.1,6.26,17.33,.25,.49,4.42,8.44,5.78,8,1.03-.34-.82-5.13-.48-11.11,.37-6.46,3.14-11.52,5.3-14.67,1.79,10.57,3.75,19.18,5.3,25.33,1.78,7.11,2.56,9.2,4.33,11.56,5.83,7.76,18.12,12.72,25.2,9.21,4.92-2.44,5.32-7.97,7.73-7.7,3.39,.38,4.41,11.44,4.61,13.61,.3,3.19,1.91,20.56-3.85,22.22-3.32,.96-6.1-4.16-19.29-10.11-4.41-1.99-6.24-2.38-7.21-1.63-2.09,1.62,.36,8.14,3.4,12.62,3.15,4.65,5.95,5.67,5.51,6.55-1.18,2.42-24.97,.94-36.32-12.78-6.32-7.64-4.11-13.42-11.55-17.78-7.31-4.28-15.9-2.49-17.81-7.11-.86-2.08,.15-4.2,.75-5.45,4.23-8.86,18.25-7.42,19.95-13.66Z"/>
      <path class="cls-2" d="M110.41,45.8c-12.99-7.54-28.49-8.35-42.45-3.33-10.42,3.59-18.63,11.09-24.51,20.34-8.87,14.28-13.34,33.89,.2,46.72,11.31,11.19,28.34,18.48,43.37,25.87,17.47,8.38,35.2,16.97,50.94,29.26,31.29,23.75,46.37,60.85,39.98,99.81-2.14,13.04-7.38,25.82-15.21,36.54-22.33,29.67-62.98,42.85-98.62,33.03-33.2-8.95-56.16-37.98-62.72-71.04-3.99-21.48,.82-43.97,11.32-62.88,33.21-59.57,111.1-80.9,167.12-39.97,2.74,2.02,6.08,4.53,8.55,6.88,2.59,2.18,5.48,5.16,7.82,7.61,12.2,12.97,21.16,29.25,25.91,46.31,0,0-.94,.34-.94,.34-10.73-22.45-27.13-40.54-48.89-52.43-25.04-13.56-55.86-16.28-82.42-5.81-30.5,11.87-55.83,39.09-61.17,71.69-1.12,7.47-.96,15.1,.66,22.43,3.5,14.59,11.46,28.85,23.36,38.17,26.52,21.04,70.5,12.9,88.81-15.23,10.16-16.29,11.13-37.17,5.69-55.31-9.72-33.39-43.16-49.49-72.56-63.6-18.06-8.94-36.17-16.55-51.42-31.82C.38,106.57,3.4,73.37,19.72,47.73,33.9,25.22,56.81,12.62,83.31,11.74c14.18-.55,28.51,3.41,40.67,10.45,0,0-13.57,23.61-13.57,23.61h0Z"/>
    </g>
  </g>
</svg>